<svg width="201" height="164" viewBox="0 0 201 164" fill="none" xmlns="http://www.w3.org/2000/svg">
<path fill-rule="evenodd" clip-rule="evenodd" d="M199.791 61C199.791 27.3106 172.48 0 138.791 0H38.2271C34.2008 0 30.2184 0.836995 26.5327 2.45786V2.45786C10.7131 9.41494 0.5 25.0636 0.5 42.3453V52.2982C0.5 58.3734 5.42488 63.2982 11.5 63.2982H32.1216V103C32.1216 136.689 59.4322 164 93.1216 164H138.791C172.48 164 199.791 136.689 199.791 103V61ZM135.917 64.2573H93.9994C89.0387 64.2573 85.0172 68.1218 85.0172 72.8889V93.0292C85.0172 97.7963 89.0387 101.661 93.9994 101.661H135.917C140.877 101.661 144.899 97.7963 144.899 93.0292V72.8889C144.899 68.1218 140.877 64.2573 135.917 64.2573Z" fill="url(#paint0_linear_1299_8)"/>
<defs>
<linearGradient id="paint0_linear_1299_8" x1="199.791" y1="-21.0994" x2="79.7118" y2="156.989" gradientUnits="userSpaceOnUse">
<stop offset="0.0480769" stop-color="#5C418A"/>
<stop offset="0.302885" stop-color="#3499CE"/>
<stop offset="0.736837" stop-color="#D15683"/>
<stop offset="0.995192" stop-color="#EC8D58"/>
</linearGradient>
</defs>
</svg>
