<svg width="200" height="164" viewBox="0 0 200 164" fill="none" xmlns="http://www.w3.org/2000/svg">
<path d="M23.9259 3.38438C29.0009 1.15251 34.4845 0 40.0286 0H159.291C181.382 0 199.291 17.9303 199.289 40.0217C199.287 52.7735 199.285 63.3952 199.284 72.0338C199.28 88.5957 185.852 102 169.29 102H144.5L144.399 70.1316C144.399 65.3645 140.377 61.5 135.417 61.5H93.4994C88.5387 61.5 84.5172 65.3645 84.5172 70.1316L85.0177 93.0292C85.0177 97.7963 89.0392 101.661 94 101.661C111 101.661 127.5 102 144.5 102V133.907C144.5 147.73 134 158 121.188 162.343L114 164H71.6216C49.5302 164 31.6216 146.091 31.6216 124V63.2982H29.8864C13.3806 63.2982 0 49.9177 0 33.4119V33.4119C0 21.5588 7.0049 10.8258 17.8551 6.05418L23.9259 3.38438Z" fill="url(#paint0_linear_1300_41)"/>
<defs>
<linearGradient id="paint0_linear_1300_41" x1="99.6453" y1="0" x2="99.6453" y2="164" gradientUnits="userSpaceOnUse">
<stop stop-color="#E855CD"/>
<stop offset="1" stop-color="#02C4EB"/>
</linearGradient>
</defs>
</svg>
